<svg width="165" height="165" viewBox="0 0 165 165" fill="none" xmlns="http://www.w3.org/2000/svg">
    <g clip-path="url(#clip0_2254_622)">
        <path
            d="M86.1793 158.143C83.9241 153.999 81.9426 149.818 80.078 145.48C78.2905 141.689 75.8795 137.428 75.1471 133.209C74.6837 130.905 78.0839 129.312 79.4849 131.345C79.4849 131.345 79.6408 131.463 79.5233 131.619C80.226 131.659 80.773 131.582 81.5929 131.467C81.7104 131.311 82.101 131.117 82.2184 130.961C82.6093 130.766 83.156 130.689 83.7031 130.613C85.5254 118.787 87.6596 107.196 88.2325 95.4071C88.4355 91.8938 88.365 88.4187 87.8656 84.865C76.8855 89.057 61.8472 92.1465 53.3174 83.0307C42.1393 70.9418 59.6101 62.3528 69.8384 62.7268C82.1361 62.9495 88.761 68.4301 91.5092 79.0557C98.6215 76.1044 105.268 71.8251 109.303 65.8212C119.29 51.5932 108.58 39.8569 95.4323 35.572C93.937 40.8003 90.8807 45.8296 86.8908 49.1785C79.8104 55.3314 63.6513 53.4212 60.98 43.3425C58.4645 33.3811 80.337 29.3306 86.2319 29.6168C87.9106 29.6596 89.745 29.8201 91.4622 30.1363C91.4237 29.8629 91.5414 29.7068 91.5028 29.4336C92.7892 12.8047 75.9956 15.3049 65.6391 19.9668C64.0757 20.7441 63.1831 18.3606 64.5906 17.4657C74.4025 11.9047 89.0135 7.75982 94.6064 20.7733C95.8877 23.9385 96.3873 27.4925 95.9109 31.0442C107.07 34.0754 117.048 41.5939 117.411 54.0879C117.846 69.081 104.006 77.7176 92.2032 83.0009C92.2414 83.2741 92.2414 83.2741 92.2801 83.5477C94.7056 98.8185 90.9993 115.091 88.3888 130.233C90.0675 130.276 91.9023 130.436 93.5808 130.479C94.713 130.599 95.6868 131.577 95.8403 132.67C96.3674 141.378 94.9809 150.354 90.7859 158.192C89.9616 160.26 87.3071 160.215 86.1793 158.143ZM85.35 74.9039C82.01 67.01 72.9138 66.7554 65.4941 67.5197C55.7315 68.4739 50.8295 78.2234 61.0085 83.2042C66.2346 85.6756 72.8747 84.3239 78.3039 83.2819C81.1551 82.7417 84.2414 81.8901 87.2892 80.7647C86.8645 78.7333 86.1659 76.7404 85.35 74.9039ZM90.8279 34.5468C84.974 33.5574 79.5062 34.3263 74.0751 36.3441C71.6915 37.2367 69.3464 38.4028 67.3515 40.0771C61.7984 44.2031 72.2143 47.8963 75.2193 48.4496C83.6107 49.6397 88.7817 41.8038 90.8279 34.5468ZM90.9153 135.314C90.7594 135.196 90.6419 135.352 90.486 135.235C90.1336 135.703 89.4691 135.935 88.6108 135.777C87.167 135.423 85.6058 135.224 84.0443 135.025C83.3417 134.984 81.7014 135.215 81.9363 134.903C81.8189 135.059 81.5455 135.098 81.3896 134.98C82.3994 137.208 83.1749 139.747 84.1847 141.975C85.4276 144.867 86.8264 147.876 88.2254 150.885C90.0715 146.166 90.9815 140.741 90.9153 135.314Z"
            fill="black" />
    </g>
    <defs>
        <clipPath id="clip0_2254_622">
            <rect width="117.17" height="117.17" fill="white"
                transform="matrix(0.798658 0.601786 0.601786 -0.798658 0 93.5791)" />
        </clipPath>
    </defs>
</svg>